<?xml version="1.0" encoding="utf-8"?>
<!-- Generator: Adobe Illustrator 25.0.1, SVG Export Plug-In . SVG Version: 6.00 Build 0)  -->
<svg version="1.1" id="レイヤー_1" xmlns="http://www.w3.org/2000/svg" xmlns:xlink="http://www.w3.org/1999/xlink" x="0px"
	 y="0px" viewBox="0 0 500 500" style="enable-background:new 0 0 500 500;" xml:space="preserve">
<style type="text/css">
	.st0{fill:#0095D8;}
	.st1{fill:#FFFFFF;}
</style>
<g>
	<path class="st0" d="M249.2,293.3c79.2,0,98.2-19.1,104.5-25.3c6.3-6.2,25.3-25.2,25.3-104.5c0-79.3-19.1-98.3-25.3-104.6
		c-6.2-6.3-25.3-25.3-104.5-25.3c-79.2,0-98.3,19.1-104.5,25.3l0,0c-6.3,6.3-25.3,25.3-25.3,104.6c0,79.2,19.1,98.2,25.3,104.5
		C150.9,274.2,169.9,293.3,249.2,293.3z"/>
	<polygon class="st1" points="69.4,393.8 69.4,348.1 55.8,348.1 55.8,364.7 38.9,364.7 38.9,348.1 25.4,348.1 25.4,393.8 
		38.9,393.8 38.9,376.5 55.8,376.5 55.8,393.8 	"/>
	<path class="st1" d="M114.3,348.1H98.1l-16.4,45.7h13.5l2.4-6.9h15.9l2.4,6.9h14.9L114.3,348.1z M100.6,377.2l3.2-8.9
		c0.6-1.8,1.2-4,1.7-5.9h0.1c0.5,2,1.3,4.4,1.9,6.2l3,8.5H100.6z"/>
	<path class="st1" d="M155.9,366.4c1,2.4,2.4,5.6,3.8,7.9l11.3,19.4h18.3v-45.7h-13.1l0.1,18.2c0,3.4,0,6.5,0.2,9h-0.1
		c-1.3-3-2.7-5.8-4.2-8.4l-11-18.7H143v45.7h13v-21.1C156,370,155.9,368.3,155.9,366.4L155.9,366.4z"/>
	<path class="st1" d="M218,348.1l-16.4,45.7h13.5l2.4-6.9h15.9l2.4,6.9h14.9l-16.4-45.7H218z M220.5,377.2l3.2-8.9
		c0.6-1.8,1.2-4,1.7-5.9h0.1c0.5,2,1.3,4.4,1.9,6.2l3,8.5H220.5z"/>
	<path class="st1" d="M278.9,381.3c0.4-0.5,1.1-1.3,1.6-2l15.7-20v-11.2H262v12.2h10.2c3.2,0,5.4,0,6.8-0.1
		c-0.7,0.9-1.4,1.8-2.3,2.9L261.6,383v10.7h35v-12.6h-9.8C282.7,381.1,279.6,381.1,278.9,381.3z"/>
	<path class="st1" d="M356.3,370.2c0-16.1-10.8-23-23.6-23c-13.3,0-25.3,9.5-25.3,24.2c0,14.1,8.5,23.2,23.5,23.2
		C344.3,394.6,356.3,385.2,356.3,370.2z M331.6,382.6c-6.2,0-9.7-4.7-9.7-11.9c0-7.6,4.7-11.6,9.9-11.6c5.9,0,10,4,10,11.8
		C341.8,379.2,336.9,382.6,331.6,382.6z"/>
	<path class="st1" d="M414.5,348.1h-13.1l0.1,18.2c0,3.4,0,6.5,0.2,9h-0.1c-1.3-3-2.7-5.8-4.2-8.4l-11-18.7h-18.2v45.7h13v-21.1
		c0-2.7-0.1-4.4-0.2-6.2h0.1c1,2.4,2.4,5.6,3.8,7.9l11.3,19.4h18.3V348.1z"/>
	<path class="st1" d="M451.7,347.2c-13.3,0-25.3,9.5-25.3,24.2c0,14.1,8.5,23.2,23.5,23.2c13.4,0,25.4-9.4,25.4-24.4
		C475.4,354.2,464.6,347.2,451.7,347.2z M450.7,382.6c-6.2,0-9.8-4.7-9.8-11.9c0-7.6,4.7-11.6,9.9-11.6c5.9,0,10,4,10,11.8
		C460.9,379.2,456,382.6,450.7,382.6z"/>
	<path class="st1" d="M82.9,448.8c0,6.1,0.1,10.3,0.3,12.7h-0.1c-1.2-2.2-2.8-4.6-4.2-6.8L64.5,433h-4.3v32.2h3.3L63.4,446
		c0-4.3-0.2-7.1-0.3-9.5h0.1c1.1,2.1,2.5,4.5,4,6.8l14.6,21.9h4.3V433h-3.3L82.9,448.8z"/>
	<rect x="103.8" y="433" class="st1" width="3.3" height="32.2"/>
	<path class="st1" d="M125.1,441.2c0-3.5,2.7-5.8,8.4-5.8c2,0,5,0.4,6.9,1l0.2-3.2c-1.9-0.4-4.7-0.6-6.8-0.6c-7.4,0-12.1,3.5-12.1,9
		c0,10.2,17.3,6.6,17.3,14.5c0,5-4.6,6.6-8.6,6.6c-3,0-5.9-0.6-7.9-1.4l-0.2,3.5c1.8,0.5,4.9,0.9,7.6,0.9c6.5,0,12.6-3.5,12.6-9.8
		C142.4,445.2,125.1,449,125.1,441.2z"/>
	<polygon class="st1" points="157.1,465.2 173.7,465.2 173.7,462.5 160.5,462.5 160.5,449.8 173.1,449.8 173.1,447.2 160.5,447.2 
		160.5,435.6 173.7,435.6 173.7,433 157.1,433 	"/>
	<polygon class="st1" points="189,433 189,465.2 192.4,465.2 192.4,448.7 192.4,433 	"/>
	<polygon class="st1" points="211.8,433 207.5,433 192.4,448.7 207.7,465.2 212.4,465.2 196.4,448.5 	"/>
	<path class="st1" d="M234.7,432.5c-8.5,0-15.5,6-15.5,16.8c0,9.3,4.2,16.3,14.6,16.3c8.9,0,15.7-5.9,15.7-16.7
		C249.5,438.6,244.4,432.5,234.7,432.5z M234.1,462.8c-8.6,0-11.3-6.6-11.3-13.9c0-8.9,5.4-13.6,11.6-13.6c7.2,0,11.6,5,11.6,14.1
		C245.9,458.1,240.8,462.8,234.1,462.8z"/>
	<path class="st1" d="M283.8,456c0,5-1.2,6.6-4.4,6.6c-1.5,0-2.7-0.3-3.7-0.6v3.1c1.1,0.3,2,0.5,3.4,0.5c5.9,0,8.1-3.2,8.1-9.4V433
		h-3.3V456z"/>
	<path class="st1" d="M311.4,433l-13,32.2h3.4l3.1-7.8H321l3,7.8h3.7L315,433H311.4z M320,454.8h-14l5-12.5c0.8-2.1,1.5-4.2,2-5.9
		h0.1c0.5,1.6,1.2,3.8,2,5.8L320,454.8z"/>
	<path class="st1" d="M348.5,432.9c-3.4,0-6,0.1-8.3,0.1v32.2h3.3v-12.3c1,0.1,2.1,0.2,3.2,0.2c8.1,0,13.2-4.3,13.2-10.9
		C359.9,436.6,355.7,432.9,348.5,432.9z M347.1,450.4c-1.1,0-2.6-0.1-3.6-0.3v-14.4c1.1-0.1,2.3-0.1,4.3-0.1c5.7,0,8.6,2.8,8.6,7.1
		C356.4,447.8,353.1,450.4,347.1,450.4z"/>
	<path class="st1" d="M379,433l-13,32.2h3.4l3.1-7.8h16.1l3,7.8h3.7L382.5,433H379z M387.5,454.8h-14l5-12.5c0.8-2.1,1.5-4.2,2-5.9
		h0.1c0.5,1.6,1.2,3.8,2,5.8L387.5,454.8z"/>
	<path class="st1" d="M430.4,448.8c0,6.1,0.1,10.3,0.3,12.7h-0.1c-1.2-2.2-2.8-4.6-4.2-6.8L412,433h-4.3v32.2h3.3L411,446
		c0-4.3-0.2-7.1-0.3-9.5h0.1c1.1,2.1,2.5,4.5,4,6.8l14.6,21.9h4.3V433h-3.3L430.4,448.8z"/>
	<path class="st1" d="M241,89.1c0.1-2.2,2-4,4.2-4h8c2.2,0,4.1,1.8,4.2,4l3.6,71.7c0.1,2.2-1.6,4-3.8,4h-15.9c-2.2,0-3.9-1.8-3.8-4
		L241,89.1z"/>
	<path class="st1" d="M178.4,224.6l8.3-36c0.5-2.1,1.1-5.7,1.2-7.8l5.1-59.8c0.2-2.2,2.1-4,4.3-4h11.9c2.2,0,3.9,1.8,3.8,4
		l-3.5,59.7c-0.1,2.2,1.6,4,3.7,4H285c2.2,0,3.9-1.8,3.7-4l-3.5-59.7c-0.1-2.2,1.6-4,3.8-4h11.9c2.2,0,4.1,1.8,4.3,4l4.9,59.8
		c0.2,2.2,0.7,5.7,1.2,7.8l8.6,36.1c0.5,2.1-0.9,3.9-3.1,3.9h-15.9c-2.2,0-4.4-1.7-4.9-3.9l-3.8-16.1c-0.5-2.1-2.7-3.9-4.9-3.9
		h-76.5c-2.2,0-4.4,1.7-4.9,3.9l-3.7,16.1c-0.5,2.1-2.7,3.9-4.9,3.9h-15.9C179.3,228.5,177.9,226.7,178.4,224.6z"/>
</g>
</svg>
