<svg xmlns="http://www.w3.org/2000/svg" viewBox="0 0 150.44 41.28"><defs><style>.cls-1{fill:#0096d9;}.cls-2{fill:#fff;}.cls-3{fill:#43616f;}</style></defs><title>logo</title><g id="Layer_2" data-name="Layer 2"><g id="レイヤー_1" data-name="レイヤー 1"><path class="cls-1" d="M4,4H4c-1,1-4,4-4,16.63S3,36.27,4,37.26s4,4,16.62,4,15.62-3,16.61-4,4-4,4-16.61S38.25,5,37.26,4s-4-4-16.62-4S5,3,4,4Z"/><path class="cls-2" d="M19.35,8.82A.66.66,0,0,1,20,8.19h1.27a.67.67,0,0,1,.66.63l.57,11.39a.6.6,0,0,1-.6.64H19.38a.6.6,0,0,1-.6-.64ZM31.41,31a.48.48,0,0,0,.48-.62l-1.36-5.73a10.49,10.49,0,0,1-.2-1.25l-.77-9.5a.7.7,0,0,0-.69-.63H27a.59.59,0,0,0-.59.63l.56,9.5a.59.59,0,0,1-.6.63H15a.59.59,0,0,1-.6-.63l.56-9.5a.59.59,0,0,0-.6-.63h-1.9a.69.69,0,0,0-.68.63l-.82,9.5a8.77,8.77,0,0,1-.19,1.25L9.39,30.36a.48.48,0,0,0,.49.62h2.53a.84.84,0,0,0,.78-.62l.6-2.57a.82.82,0,0,1,.77-.61H26.72a.83.83,0,0,1,.78.61l.6,2.57a.84.84,0,0,0,.77.62Z"/><path class="cls-3" d="M58.18,18.16v-3.8H54.45v3.8h-3v-10h3v3.65h3.73V8.12h3v10Z"/><path class="cls-3" d="M71.37,18.16l-.52-1.52h-3.5l-.52,1.52h-3l3.61-10H71l3.62,10Zm-1.85-5.52c-.14-.41-.31-.93-.43-1.37h0c-.09.42-.23.89-.36,1.29L68,14.51h2.16Z"/><path class="cls-3" d="M83.51,18.16,81,13.9a13.12,13.12,0,0,1-.83-1.74h0c0,.4,0,.77,0,1.37v4.63H77.34v-10h4l2.42,4.11c.32.58.63,1.2.92,1.86h0c0-.54,0-1.22,0-2l0-4h2.88v10Z"/><path class="cls-3" d="M97.74,18.16l-.52-1.52H93.73l-.53,1.52h-3l3.61-10h3.58l3.61,10Zm-1.85-5.52c-.14-.41-.31-.93-.43-1.37h0c-.09.42-.23.89-.36,1.29l-.7,1.95h2.17Z"/><path class="cls-3" d="M103.42,18.16V15.81l3.33-4.39.5-.64c-.29,0-.79,0-1.49,0h-2.24V8.12H111v2.45L107.58,15c-.12.15-.25.33-.35.44a15.71,15.71,0,0,1,1.74,0h2.16v2.78Z"/><path class="cls-3" d="M118.67,18.36c-3.31,0-5.18-2-5.18-5.1a5.35,5.35,0,0,1,5.56-5.33c2.82,0,5.2,1.52,5.2,5.06A5.35,5.35,0,0,1,118.67,18.36Zm.19-7.81a2.25,2.25,0,0,0-2.18,2.55c0,1.59.77,2.61,2.14,2.61,1.18,0,2.24-.75,2.24-2.57S120.15,10.55,118.86,10.55Z"/><path class="cls-3" d="M133,18.16l-2.49-4.26a13.12,13.12,0,0,1-.83-1.74h0c0,.4,0,.77,0,1.37v4.63h-2.86v-10h4l2.42,4.11a20.15,20.15,0,0,1,.93,1.86h0c0-.54,0-1.22,0-2l0-4h2.88v10Z"/><path class="cls-3" d="M144.86,18.36c-3.3,0-5.18-2-5.18-5.1a5.35,5.35,0,0,1,5.57-5.33c2.82,0,5.19,1.52,5.19,5.06A5.34,5.34,0,0,1,144.86,18.36Zm.2-7.81a2.26,2.26,0,0,0-2.19,2.55c0,1.59.77,2.61,2.15,2.61,1.17,0,2.24-.75,2.24-2.57S146.35,10.55,145.06,10.55Z"/><path class="cls-3" d="M63.89,33.87l-3.21-4.82c-.33-.5-.64-1-.89-1.49h0c0,.54.06,1.15.06,2.1l0,4.21h-.72V26.79h.94l3.17,4.78c.31.48.65,1,.93,1.49h0c0-.52-.07-1.45-.07-2.8V26.79h.73v7.08Z"/><path class="cls-3" d="M68.71,33.87V26.79h.74v7.08Z"/><path class="cls-3" d="M74.44,34a7.18,7.18,0,0,1-1.67-.19l0-.77a4.48,4.48,0,0,0,1.75.32c.88,0,1.89-.37,1.89-1.46,0-1.73-3.8-.95-3.8-3.19,0-1.21,1-2,2.66-2a9.19,9.19,0,0,1,1.5.14l0,.69a6.33,6.33,0,0,0-1.52-.21c-1.25,0-1.85.5-1.85,1.28,0,1.73,3.81.9,3.81,3.23C77.21,33.19,75.87,34,74.44,34Z"/><path class="cls-3" d="M80.46,33.87V26.79h3.65v.57H81.19v2.56H84v.57H81.19v2.8h2.92v.58Z"/><path class="cls-3" d="M91.57,33.87l-3.36-3.62v3.62h-.74V26.79h.74v3.46l3.32-3.46h1l-3.4,3.42,3.52,3.66Z"/><path class="cls-3" d="M97.31,34c-2.28,0-3.2-1.54-3.2-3.58a3.37,3.37,0,0,1,3.4-3.7c2.13,0,3.26,1.34,3.26,3.6A3.35,3.35,0,0,1,97.31,34Zm.12-6.68c-1.35,0-2.55,1.05-2.55,3,0,1.62.6,3.07,2.5,3.07,1.48,0,2.6-1,2.6-3S99,27.29,97.43,27.29Z"/><path class="cls-3" d="M107.28,34a2.78,2.78,0,0,1-.75-.1v-.69a2.63,2.63,0,0,0,.82.14c.69,0,1-.35,1-1.46V26.79h.74v5.09C109.05,33.26,108.59,34,107.28,34Z"/><path class="cls-3" d="M117.17,33.87l-.67-1.71H113l-.68,1.71h-.75l2.86-7.08h.78L118,33.87Zm-2-5c-.17-.45-.34-.93-.45-1.28h0c-.11.38-.27.84-.45,1.31l-1.09,2.73h3.08Z"/><path class="cls-3" d="M122.15,31.22c-.24,0-.49,0-.7,0v2.69h-.74V26.79c.5,0,1.08,0,1.83,0,1.58,0,2.52.82,2.52,2.06C125.06,30.26,123.94,31.22,122.15,31.22Zm.24-3.86h-.94v3.18a4.84,4.84,0,0,0,.79.07c1.3,0,2-.58,2-1.71C124.28,28,123.64,27.36,122.39,27.36Z"/><path class="cls-3" d="M132,33.87l-.67-1.71h-3.54l-.68,1.71h-.75l2.86-7.08H130l2.82,7.08Zm-2-5c-.17-.45-.34-.93-.45-1.28h0c-.11.38-.27.84-.45,1.31l-1.09,2.73h3.08Z"/><path class="cls-3" d="M140.32,33.87l-3.21-4.82c-.33-.5-.64-1-.89-1.49h0c0,.54.07,1.15.07,2.1v4.21h-.72V26.79h.94l3.17,4.78c.32.48.66,1,.93,1.49h0c0-.52-.06-1.45-.06-2.8l0-3.47h.74v7.08Z"/></g></g></svg>